<!-- Generated by IcoMoon.io -->
<svg version="1.1" xmlns="http://www.w3.org/2000/svg" width="768" height="768" viewBox="0 0 768 768">
<title></title>
<g id="icomoon-ignore">
</g>
<path d="M405.079 66.154c-43.228 40.807-75.706 101.631-84.869 174.329-1.036 8.449 1.056 18.334 6.269 26.782 5.751 9.32 13.865 14.567 21.241 14.702l0.111-0.003c54.599 0.548 109.154-26.245 152.735-66.925s76.82-94.794 82.558-158.549c0.714-8.173-1.419-17.547-6.396-25.612-4.848-7.856-11.376-12.819-17.725-14.265l-0.043-0.009c-56.273-12.625-110.653 8.743-153.882 49.55z"></path>
<path d="M365.194 69.262c43.228 40.807 75.706 101.631 84.868 174.329 1.036 8.449-1.056 18.334-6.269 26.782-5.751 9.32-13.865 14.567-21.241 14.702l-0.111-0.003c-54.599 0.548-109.154-26.245-152.734-66.925s-76.82-94.794-82.558-158.549c-0.714-8.173 1.419-17.547 6.396-25.612 4.848-7.856 11.376-12.819 17.725-14.265l0.043-0.009c56.273-12.625 110.653 8.743 153.882 49.55z"></path>
<path d="M427.921 255.39c-16.48-130.754-120.137-228.466-218.502-206.398 9.579 106.421 120.35 207.382 218.502 206.398z"></path>
<path d="M349.377 94.892c40.27 38.014 70.303 95.113 78.543 160.491-98.152 0.985-208.924-99.976-218.503-206.398 49.183-11.034 99.69 7.894 139.96 45.907zM339.473 110.94c-32.75-30.915-72.447-46.94-111.19-45.126 9.831 39.544 33.958 79.696 67.030 110.567 32.998 30.802 73.577 51.569 112.607 57.715-11.836-49.046-36.248-92.76-68.448-123.157z"></path>
<path d="M342.353 252.284c16.48-130.754 120.137-228.466 218.502-206.398-9.579 106.421-120.35 207.382-218.502 206.398z"></path>
<path d="M420.896 91.786c-40.27 38.014-70.303 95.113-78.542 160.491 98.152 0.986 208.924-99.976 218.503-206.398-49.183-11.034-99.69 7.893-139.96 45.907zM430.799 107.834c32.75-30.915 72.447-46.94 111.19-45.126-9.831 39.544-33.958 79.696-67.031 110.567-32.999 30.802-73.577 51.569-112.607 57.715 11.836-49.046 36.248-92.761 68.448-123.157z"></path>
<path d="M383.894 520.614c-59.813 0-114.245 54.412-114.249 114.226-0.012 59.825 54.424 114.264 114.249 114.25 59.814-0.004 114.24-54.436 114.226-114.25-0.004-59.801-54.424-114.222-114.226-114.226z"></path>
<path d="M306.433 389.823c-59.813 0-114.245 54.412-114.249 114.227-0.012 59.825 54.425 114.263 114.249 114.248 59.814-0.002 114.24-54.435 114.227-114.248-0.005-59.804-54.424-114.222-114.227-114.227z"></path>
<path d="M461.354 389.823c-59.813 0-114.245 54.412-114.249 114.227-0.012 59.825 54.425 114.263 114.249 114.248 59.814-0.002 114.24-54.435 114.226-114.248-0.005-59.804-54.424-114.222-114.226-114.227z"></path>
<path d="M228.599 256.98c-59.813-0.008-114.245 54.412-114.249 114.226-0.012 59.825 54.424 114.262 114.249 114.248 59.814-0.003 114.24-54.435 114.226-114.248-0.005-59.803-54.424-114.222-114.226-114.226z"></path>
<path d="M539.188 256.98c-59.813-0.008-114.245 54.412-114.25 114.226-0.012 59.825 54.425 114.262 114.25 114.248 59.814-0.003 114.24-54.435 114.226-114.248-0.005-59.803-54.424-114.222-114.226-114.226z"></path>
<path d="M384.268 256.98c-59.814-0.008-114.245 54.412-114.25 114.226-0.012 59.825 54.424 114.262 114.25 114.248 59.814-0.003 114.24-54.435 114.226-114.248-0.005-59.803-54.424-114.222-114.226-114.226z"></path>
<path d="M462.102 126.008c-59.813-0.007-114.245 54.412-114.249 114.226-0.012 59.825 54.425 114.263 114.249 114.249 59.814-0.003 114.24-54.436 114.226-114.249-0.004-59.802-54.424-114.222-114.226-114.226z"></path>
<path d="M306.433 126.008c-59.813-0.007-114.245 54.412-114.249 114.226-0.012 59.825 54.425 114.263 114.249 114.249 59.814-0.003 114.24-54.436 114.227-114.249-0.005-59.802-54.424-114.222-114.227-114.226z"></path>
<path d="M384.219 240.241c0 42.964-34.829 77.793-77.793 77.793s-77.793-34.829-77.793-77.793c0-42.964 34.829-77.793 77.793-77.793s77.793 34.829 77.793 77.793z"></path>
<path d="M306.433 162.446c-0.005 0-0.011 0-0.018 0-42.962 0-77.79 34.826-77.793 77.788v0c0 0.005 0 0.012 0 0.019 0 42.964 34.829 77.793 77.793 77.793 0.006 0 0.013 0 0.019 0h-0.001c42.962-0.003 77.788-34.831 77.788-77.793 0-0.007 0-0.013 0-0.019v0.001c-0.003-42.96-34.828-77.785-77.788-77.788v0zM306.433 184.103c29.392 0.002 56.128 26.738 56.131 56.131 0.007 29.398-26.733 56.153-56.131 56.154-29.403 0.007-56.161-26.75-56.154-56.154 0.002-29.398 26.756-56.137 56.154-56.131z"></path>
<path d="M539.888 240.241c0 42.964-34.829 77.793-77.793 77.793s-77.793-34.829-77.793-77.793c0-42.964 34.829-77.793 77.793-77.793s77.793 34.829 77.793 77.793z"></path>
<path d="M462.102 162.446c-0.005 0-0.011 0-0.018 0-42.962 0-77.79 34.826-77.793 77.788v0c0 0.005 0 0.012 0 0.019 0 42.964 34.829 77.793 77.793 77.793 0.006 0 0.013 0 0.019 0h-0.001c42.962-0.003 77.788-34.831 77.788-77.793 0-0.007 0-0.013 0-0.019v0.001c-0.003-42.96-34.828-77.785-77.788-77.788v0zM462.102 184.103c29.393 0.002 56.128 26.738 56.131 56.131 0.007 29.398-26.733 56.153-56.131 56.154-29.403 0.007-56.161-26.75-56.154-56.154 0.002-29.398 26.756-56.137 56.154-56.131z"></path>
<path d="M306.384 371.218c0 42.964-34.829 77.793-77.793 77.793s-77.793-34.829-77.793-77.793c0-42.964 34.829-77.793 77.793-77.793s77.793 34.829 77.793 77.793z"></path>
<path d="M228.599 293.418c-0.005 0-0.011 0-0.018 0-42.962 0-77.79 34.826-77.793 77.788v0c0 0.005 0 0.011 0 0.017 0 42.964 34.829 77.793 77.793 77.793 0.006 0 0.013 0 0.019 0h-0.001c42.962-0.003 77.788-34.831 77.788-77.793 0-0.006 0-0.012 0-0.018v0.001c-0.003-42.96-34.829-77.785-77.788-77.788v0zM228.599 315.075c29.392 0.001 56.128 26.738 56.131 56.131 0.007 29.398-26.733 56.152-56.131 56.153-29.404 0-56.161-26.75-56.154-56.153 0.002-29.398 26.756-56.137 56.154-56.131z"></path>
<path d="M462.053 371.218c0 42.964-34.829 77.793-77.793 77.793s-77.793-34.829-77.793-77.793c0-42.964 34.829-77.793 77.793-77.793s77.793 34.829 77.793 77.793z"></path>
<path d="M384.268 293.418c-0.005 0-0.012 0-0.018 0-42.962 0-77.79 34.826-77.793 77.788v0c0 0.005 0 0.011 0 0.017 0 42.964 34.829 77.793 77.793 77.793 0.006 0 0.013 0 0.019 0h-0.001c42.962-0.003 77.788-34.831 77.788-77.793 0-0.006 0-0.012 0-0.017v0.001c-0.003-42.96-34.828-77.785-77.788-77.788v0zM384.268 315.075c29.393 0.001 56.128 26.738 56.131 56.131 0.007 29.398-26.733 56.152-56.131 56.153-29.404 0-56.161-26.75-56.154-56.153 0.002-29.398 26.756-56.137 56.154-56.131z"></path>
<path d="M616.974 371.218c0 42.964-34.829 77.793-77.793 77.793s-77.793-34.829-77.793-77.793c0-42.964 34.829-77.793 77.793-77.793s77.793 34.829 77.793 77.793z"></path>
<path d="M539.188 293.418c-0.005 0-0.011 0-0.018 0-42.962 0-77.79 34.826-77.793 77.788v0c0 0.005 0 0.011 0 0.017 0 42.964 34.829 77.793 77.793 77.793 0.006 0 0.013 0 0.019 0h-0.001c42.962-0.003 77.788-34.831 77.788-77.793 0-0.006 0-0.012 0-0.018v0.001c-0.003-42.96-34.828-77.785-77.788-77.788v0zM539.188 315.075c29.392 0.001 56.129 26.738 56.131 56.131 0.007 29.398-26.733 56.152-56.131 56.153-29.404 0-56.161-26.75-56.154-56.153 0.002-29.398 26.756-56.137 56.154-56.131z"></path>
<path d="M384.219 504.059c0 42.964-34.829 77.793-77.793 77.793s-77.793-34.829-77.793-77.793c0-42.964 34.829-77.793 77.793-77.793s77.793 34.829 77.793 77.793z"></path>
<path d="M306.433 426.262c-0.005 0-0.011 0-0.018 0-42.962 0-77.79 34.826-77.793 77.787v0c0 0.005 0 0.010 0 0.016 0 42.964 34.829 77.793 77.793 77.793 0.006 0 0.013 0 0.019 0h-0.001c42.962-0.003 77.788-34.831 77.788-77.793 0-0.005 0-0.011 0-0.017v0.001c-0.003-42.96-34.829-77.785-77.788-77.788v0zM306.433 447.918c29.392 0.001 56.128 26.739 56.131 56.132 0.007 29.397-26.733 56.152-56.131 56.154-29.403 0.006-56.161-26.752-56.154-56.154 0.002-29.398 26.756-56.138 56.154-56.132z"></path>
<path d="M539.14 504.059c0 42.964-34.829 77.793-77.793 77.793s-77.793-34.829-77.793-77.793c0-42.964 34.829-77.793 77.793-77.793s77.793 34.829 77.793 77.793z"></path>
<path d="M461.354 426.262c-0.005 0-0.011 0-0.018 0-42.962 0-77.79 34.826-77.793 77.787v0c0 0.005 0 0.010 0 0.016 0 42.964 34.829 77.793 77.793 77.793 0.006 0 0.013 0 0.019 0h-0.001c42.962-0.003 77.788-34.831 77.788-77.793 0-0.005 0-0.011 0-0.017v0.001c-0.003-42.96-34.828-77.785-77.788-77.788v0zM461.354 447.918c29.392 0.001 56.128 26.739 56.131 56.132 0.007 29.397-26.732 56.152-56.131 56.154-29.404 0.006-56.161-26.752-56.154-56.154 0.002-29.398 26.756-56.138 56.154-56.132z"></path>
<path d="M461.675 634.853c0 42.964-34.829 77.793-77.793 77.793s-77.793-34.829-77.793-77.793c0-42.964 34.829-77.793 77.793-77.793s77.793 34.829 77.793 77.793z"></path>
<path d="M383.894 557.053c-0.005 0-0.011 0-0.018 0-42.962 0-77.79 34.826-77.793 77.787v0c0 0.005 0 0.012 0 0.018 0 42.964 34.829 77.793 77.793 77.793 0.006 0 0.013 0 0.019 0h-0.001c42.962-0.003 77.788-34.831 77.788-77.793 0-0.007 0-0.013 0-0.019v0.001c-0.003-42.96-34.828-77.785-77.788-77.788v0zM383.894 578.71c29.392 0.002 56.129 26.739 56.131 56.131 0.007 29.399-26.733 56.153-56.131 56.155-29.404 0.005-56.161-26.75-56.154-56.155 0.002-29.398 26.756-56.138 56.154-56.131z"></path>
<path d="M330.301 178.983c12.961 17.189-19.231 15.487-43.538 33.815s-31.525 49.746-44.486 32.557c-12.961-17.189-6.37-49.439 17.937-67.767s57.126-15.793 70.086 1.395z"></path>
<path d="M486.773 178.454c12.961 17.188-19.231 15.487-43.537 33.814s-31.526 49.746-44.485 32.557c-12.961-17.189-6.37-49.439 17.937-67.766s57.125-15.793 70.086 1.395z"></path>
<path d="M251.744 310.188c12.961 17.189-19.231 15.488-43.537 33.815-24.308 18.329-31.526 49.748-44.486 32.558s-6.37-49.438 17.937-67.767 57.125-15.793 70.086 1.394z"></path>
<path d="M407.761 309.704c12.961 17.189-19.231 15.487-43.538 33.815s-31.525 49.746-44.486 32.557c-12.961-17.188-6.37-49.439 17.937-67.765 24.307-18.329 57.126-15.794 70.086 1.394z"></path>
<path d="M562.289 310.234c12.961 17.188-19.231 15.487-43.537 33.815s-31.526 49.745-44.486 32.556c-12.961-17.186-6.37-49.438 17.937-67.765 24.307-18.328 57.126-15.794 70.087 1.394z"></path>
<path d="M485.715 442.529c12.961 17.189-19.231 15.487-43.538 33.815-24.307 18.329-31.525 49.748-44.485 32.558s-6.37-49.438 17.937-67.768c24.307-18.327 57.126-15.794 70.087 1.394z"></path>
<path d="M330.607 442.529c12.961 17.189-19.231 15.487-43.538 33.815-24.308 18.329-31.525 49.748-44.486 32.558s-6.37-49.438 17.937-67.768c24.308-18.327 57.126-15.794 70.087 1.394z"></path>
<path d="M408.138 572.929c12.961 17.189-19.231 15.487-43.538 33.815-24.308 18.33-31.525 49.748-44.486 32.558s-6.37-49.438 17.937-67.767c24.307-18.328 57.125-15.795 70.087 1.393z"></path>
<path d="M527.565 12.998c-44.881-0.317-87.358 20.005-122.482 53.161-7.448 7.031-14.444 14.859-21.19 23.037-5.99-7.040-12.188-13.77-18.71-19.926-43.229-40.807-97.596-62.183-153.868-49.558-8.622 2.013-17.098 10.247-21.488 21.865-2.358 6.241-3.186 12.53-2.665 18.113l-0.007-0.102c3.47 38.559 17.114 73.526 36.906 104.193-19.417 20.749-31.876 47.949-31.878 76.454-0.001 7.651 0.919 15.198 2.596 22.569-45.038 15.526-80.428 60.194-80.431 108.403-0.010 48.395 35.618 93.241 80.898 108.613-1.934 7.9-3.063 15.998-3.064 24.23-0.010 48.083 35.17 92.635 80.033 108.284-1.667 7.349-2.572 14.875-2.572 22.5-0.012 59.825 54.425 114.264 114.249 114.248 59.814-0.002 114.24-54.436 114.226-114.248-0.001-7.63-0.905-15.169-2.572-22.522 44.856-15.656 80.044-60.189 80.033-108.262-0.001-8.239-1.126-16.349-3.064-24.254 45.273-15.379 80.909-60.202 80.898-108.589-0.003-47.963-35.040-92.38-79.753-108.122 1.718-7.46 2.668-15.103 2.666-22.85-0.001-28.533-12.472-55.768-31.924-76.525 20.847-31.367 35.147-67.403 38.73-107.21 0.517-5.486-0.31-11.782-2.671-18.029-4.394-11.629-12.881-19.867-21.362-21.843l-0.15-0.027c-10.551-2.367-21.029-3.529-31.387-3.601z"></path>
</svg>
