<!-- Generated by IcoMoon.io -->
<svg version="1.1" xmlns="http://www.w3.org/2000/svg" width="768" height="768" viewBox="0 0 768 768">
<title></title>
<g id="icomoon-ignore">
</g>
<path fill="#000" d="M592.572 568.992h14.292v14.292h-14.292v-14.292z"></path>
<path fill="#000" d="M664.563 310.466h14.29v14.292h-14.29v-14.292z"></path>
<path fill="#000" d="M509.6 320.438h14.29v14.29h-14.29v-14.29z"></path>
<path fill="#000" d="M671.709 636.513h14.29v14.291h-14.29v-14.291z"></path>
<path fill="#000" d="M541.44 650.089h14.292v14.29h-14.292v-14.29z"></path>
<path fill="#000" d="M659.784 165.51c-6.723-3.655-10.902-10.677-10.902-18.325v-21.519c8.164-1.385 14.41-8.489 14.41-17.043v-24.748c0-9.541-7.764-17.306-17.305-17.306h-119.439c-9.541 0-17.304 7.764-17.304 17.306v24.748c0 8.552 6.24 15.657 14.403 17.042v21.52c0 3.747-1.014 7.431-2.933 10.651-1.925 3.23-4.681 5.886-7.968 7.672-45.051 24.478-73.038 71.537-73.038 122.811v14.646h-313.989c-21.736 0-39.895 16.296-42.237 37.905l-14.532 134.013 14.912 1.617 14.532-134.013c1.516-13.978 13.263-24.522 27.325-24.522h328.368c14.063 0 25.809 10.542 27.325 24.522l14.52 133.892 14.911-1.617-8.281-76.373h137.96v124.728h-90.156v15h105.156v-189h-158.304l-0.894-8.247c-2.321-21.402-20.157-37.582-41.616-37.89v-14.659c0-5.953 0.43-11.841 1.255-17.631 15.031 1.693 23.594 7.754 33.248 14.627 11.778 8.385 25.128 17.89 50.702 17.89s38.923-9.505 50.705-17.89c11.388-8.108 21.222-15.11 42.003-15.11s30.615 7.002 42.005 15.11c10.563 7.521 22.422 15.918 43.2 17.575v354.354c0 15.607-12.692 28.305-28.29 28.305h-182.43v15h182.43c23.87 0 43.29-19.427 43.29-43.305v-368.91c0-51.286-27.987-98.349-73.041-122.826zM640.523 364.116v19.272h-139.586l-2.091-19.272h141.677zM524.245 83.874c0-1.272 1.034-2.305 2.304-2.305h119.439c1.272 0 2.306 1.034 2.306 2.305v24.748c0 1.272-1.034 2.306-2.306 2.306h-119.439c-1.271 0-2.304-1.033-2.304-2.306v-24.748zM683.325 273.094c-11.78-8.387-25.13-17.89-50.705-17.89-25.573 0-38.923 9.504-50.704 17.89-11.388 8.108-21.222 15.11-42.003 15.11-20.779 0-30.615-7.002-42.003-15.11-9.819-6.992-20.757-14.739-38.932-17.13 8.736-32.577 30.454-60.719 60.936-77.28 5.653-3.077 10.387-7.632 13.689-13.173 1.208-2.029 2.204-4.165 2.985-6.375h70.242v-15h-68.183v-18.207h95.235v21.255c0 13.15 7.18 25.221 18.739 31.505 40.080 21.777 65.024 63.578 65.193 109.174-15.822-1.487-24.57-7.707-34.489-14.769z"></path>
<path fill="#000" d="M144.333 213.354h15v22.572h-15v-22.572z"></path>
<path fill="#000" d="M144.333 251.94h15v22.572h-15v-22.572z"></path>
<path fill="#000" d="M121.254 236.433h22.572v15h-22.572v-15z"></path>
<path fill="#000" d="M159.84 236.433h22.572v15h-22.572v-15z"></path>
<path fill="#000" d="M396.561 102.168h15v22.572h-15v-22.572z"></path>
<path fill="#000" d="M396.561 140.754h15v22.572h-15v-22.572z"></path>
<path fill="#000" d="M373.481 125.247h22.573v15h-22.573v-15z"></path>
<path fill="#000" d="M412.068 125.247h22.571v15h-22.571v-15z"></path>
<path fill="#000" d="M520.373 600.844c13.482-0.175 24.399-11.184 24.399-24.708s-10.918-24.531-24.404-24.707c0-0.042 0.005-0.086 0.005-0.128 0-19.492-7.767-41.292-20.778-58.311-14.542-19.027-33.147-29.505-52.383-29.505-5.469 0-10.884 0.876-16.172 2.526-13.905-28.469-37.995-46.494-62.902-46.494-24.781 0-48.837 17.936-62.787 46.25-5.036-1.491-10.182-2.281-15.378-2.281-5.57 0-11.081 0.906-16.46 2.613-13.902-28.522-38.005-46.583-62.947-46.583-24.72 0-48.743 17.871-62.691 46.083-4.863-1.387-9.828-2.113-14.837-2.113-19.241 0-37.845 10.477-52.388 29.505-13.006 17.018-20.772 38.816-20.772 58.311 0 0.038 0.003 0.075 0.003 0.112-13.624 0.009-24.708 11.094-24.708 24.72s11.078 24.71 24.699 24.721v29.211c0 39.232 31.917 71.151 71.151 71.151 29.481 0 54.831-18.025 65.611-43.632h27.843c10.729 25.717 36.132 43.844 65.692 43.844 29.562 0 54.963-18.126 65.694-43.844h27.743c9.531 22.638 30.452 39.338 55.543 42.908v0.047c0.099 0 0.199-0.009 0.298-0.009 3.197 0.44 6.455 0.686 9.769 0.686 39.232 0 71.153-31.917 71.153-71.151v-29.221zM447.213 478.488c31.323 0 58.16 40.038 58.16 72.816 0 0.036-0.003 0.075-0.003 0.113h-116.312c0-0.038-0.003-0.077-0.003-0.113 0-32.776 26.837-72.816 58.158-72.816zM368.139 434.52c21.318 0 39.37 18.083 49.228 37.722-8.159 4.956-15.791 11.917-22.541 20.751-13.008 17.018-20.773 38.816-20.773 58.311 0 0.036 0.003 0.075 0.004 0.112h-10.929c0-0.037 0.003-0.076 0.003-0.112 0-19.493-7.767-41.292-20.777-58.311-6.943-9.086-14.818-16.194-23.239-21.169 9.907-19.442 27.896-37.303 49.023-37.303zM289.972 478.488c31.323 0 58.158 40.038 58.158 72.816 0 0.036-0.003 0.075-0.003 0.113h-116.311c0-0.038-0.003-0.077-0.003-0.113 0.001-32.776 26.84-72.816 58.16-72.816zM210.567 434.52c21.376 0 39.459 18.162 49.308 37.875-8.064 4.946-15.608 11.856-22.288 20.598-13.007 17.018-20.772 38.816-20.772 58.311 0 0.036 0.003 0.075 0.003 0.112h-10.621c0-0.037 0.003-0.076 0.003-0.112 0-19.493-7.767-41.292-20.778-58.311-7.075-9.256-15.114-16.47-23.716-21.457 9.915-19.307 27.841-37.016 48.862-37.016zM133.040 478.488c31.321 0 58.158 40.038 58.158 72.816 0 0.036-0.003 0.075-0.003 0.113h-116.31c0-0.038-0.003-0.077-0.003-0.113 0-32.776 26.836-72.816 58.158-72.816zM74.876 630.071v-29.21h9.399v28.961c0 17.049 4.807 32.707 12.801 44.934-13.481-10.268-22.2-26.474-22.2-44.685zM201.053 642.589c0.724-4.067 1.125-8.245 1.125-12.519v-3.723c0-4.617 3.756-8.373 8.47-8.373 4.617 0 8.373 3.756 8.373 8.373v3.933c0 4.2 0.387 8.307 1.088 12.309h-19.056zM360.236 642.589c0.702-4.002 1.089-8.109 1.089-12.309v-3.933c0-4.617 3.756-8.373 8.372-8.373 4.617 0 8.373 3.756 8.373 8.373v3.723c0 4.274 0.401 8.452 1.125 12.519h-18.958zM480.213 629.822c0 30.205-17.803 54.855-39.915 55.683-26.735-4.287-47.228-27.51-47.228-55.434v-3.723c0-12.888-10.485-23.373-23.373-23.373s-23.372 10.485-23.372 23.373v3.933c0 30.963-25.19 56.153-56.152 56.153-30.962 0-56.151-25.19-56.151-56.153v-3.933c0-12.888-10.485-23.373-23.472-23.373-12.887 0-23.372 10.485-23.372 23.373v3.723c0 27.967-20.554 51.219-47.35 55.457-22.407-0.372-40.552-25.211-40.552-55.705v-28.961h380.939v28.961zM505.373 630.071c0 18.887-9.384 35.613-23.721 45.797 8.442-12.384 13.561-28.469 13.561-46.046v-28.961h10.16v29.21zM59.9 585.861c-5.361 0-9.722-4.362-9.722-9.723 0-5.359 4.36-9.72 9.722-9.72h460.149c5.361 0 9.723 4.361 9.723 9.72 0 5.361-4.362 9.723-9.723 9.723h-460.149z"></path>
<path fill="#000" d="M152.676 349.548c0-10.83-8.81-19.641-19.64-19.641s-19.641 8.811-19.641 19.641 8.811 19.641 19.641 19.641 19.64-8.811 19.64-19.641zM128.397 349.548c0-2.559 2.082-4.641 4.641-4.641 2.558 0 4.64 2.082 4.64 4.641s-2.082 4.641-4.64 4.641c-2.56 0-4.641-2.082-4.641-4.641z"></path>
<path fill="#000" d="M447.21 369.189c10.832 0 19.641-8.811 19.641-19.641s-8.81-19.641-19.641-19.641c-10.829 0-19.641 8.811-19.641 19.641s8.813 19.641 19.641 19.641zM447.21 344.907c2.559 0 4.641 2.082 4.641 4.641s-2.082 4.641-4.641 4.641c-2.557 0-4.641-2.082-4.641-4.641s2.084-4.641 4.641-4.641z"></path>
<path fill="#000" d="M380.331 342.851h29.317v15h-29.318v-15z"></path>
<path fill="#000" d="M171.657 342.851h191.162v15h-191.161v-15z"></path>
<path fill="#000" d="M681.534 560.77h15v23.506h-15v-23.506z"></path>
<path fill="#000" d="M681.534 348.481h15v190.851h-15v-190.851z"></path>
</svg>
