<!-- Generated by IcoMoon.io -->
<svg version="1.1" xmlns="http://www.w3.org/2000/svg" width="768" height="768" viewBox="0 0 768 768">
<title></title>
<g id="icomoon-ignore">
</g>
<path fill="#000" d="M712.708 75.922c-28.274-32.559-68.592-54.017-113.944-57.398l-0.556-0.033c-92.263-6.894-173.219 62.513-180.445 154.716-0.346 4.044-0.544 8.752-0.544 13.505 0 60.29 31.783 113.156 79.507 142.759l0.716 0.414c1.786 1.089 2.96 3.026 2.96 5.238 0 0.124-0.004 0.248-0.011 0.371l0.001-0.017-2.836 43.346c-0.024 0.298-0.038 0.645-0.038 0.995 0 5.209 2.989 9.72 7.345 11.911l0.076 0.035c1.788 0.934 3.905 1.485 6.149 1.492h0.002c3.31-0.012 6.336-1.223 8.667-3.222l-0.018 0.015 41.66-35.030c1.046-0.878 2.408-1.411 3.893-1.411 0.252 0 0.5 0.015 0.743 0.045l-0.029-0.003c2.87 0.337 5.773 0.604 8.632 0.79 3.288 0.229 7.126 0.359 10.994 0.359 92.999 0 168.39-75.391 168.39-168.39 0-42.373-15.651-81.090-41.487-110.686l0.17 0.199zM497.947 156.358v-13.129h-13.129c-4.349 0-7.875-3.526-7.875-7.875s3.526-7.875 7.875-7.875v0h13.129v-13.129c0-4.349 3.526-7.875 7.875-7.875s7.875 3.526 7.875 7.875v0 13.129h13.13c4.349 0 7.875 3.526 7.875 7.875s-3.526 7.875-7.875 7.875v0h-13.13v13.129c0 4.349-3.526 7.875-7.875 7.875s-7.875-3.526-7.875-7.875v0zM673.388 266.021c-8.847 10.505-22.007 17.134-36.715 17.134-0.018 0-0.036 0-0.053 0h-126.702c-4.349 0-7.875-3.526-7.875-7.875s3.526-7.875 7.875-7.875v0h126.705c17.82 0 32.266-14.446 32.266-32.266 0-1.968-0.176-3.895-0.514-5.766l0.029 0.196-19.471-111.095c-2.641-14.787-15.402-25.866-30.752-25.866-0.015 0-0.031 0-0.046 0h-26.461c-5.983 0.227-11.343 2.721-15.28 6.643l0.001-0.001c-2.319 2.095-3.837 5.038-4.064 8.335l-0.002 0.038 0.374 23.496c0.032 2.002 0.045 2.83 6.635 7.359l11.431 7.040c2.972 1.86 6.584 2.962 10.453 2.962 0.001 0 0.002 0 0.003 0h0.495c0.71-4.821 1.493-8.681 2.029-11.090 0.119-0.515 0.187-1.107 0.187-1.715 0-0.877-0.142-1.722-0.404-2.511l0.016 0.056-1.793-5.573h-8.408c-4.349 0-7.875-3.526-7.875-7.875s3.526-7.875 7.875-7.875v0h10.186c0.008 0 0.019 0 0.029 0 5.886 0 10.877 3.833 12.615 9.138l0.026 0.094 2.338 7.265c0.726 2.176 1.145 4.681 1.145 7.283 0 1.821-0.206 3.595-0.594 5.298l0.031-0.159c-2.586 11.602-9.563 51.805 9.21 82.071 0.743 1.18 1.183 2.614 1.183 4.151 0 4.347-3.521 7.871-7.867 7.876h-0.003c-0.008 0-0.018 0-0.029 0-2.806 0-5.267-1.474-6.649-3.692l-0.019-0.033c-3.958-6.33-7.317-13.626-9.706-21.35l-0.177-0.665c-49.245-29.535-88.767-0.89-90.426 0.344-0.692 0.539-1.308 1.090-1.885 1.681l-0.003 0.003c-1.429 1.448-3.413 2.344-5.606 2.344-4.349 0-7.875-3.526-7.875-7.875 0-2.203 0.904-4.193 2.361-5.623l0.001-0.002c1.103-1.116 2.279-2.153 3.524-3.106l0.081-0.059c9.379-6.52 20.401-11.455 32.28-14.126l0.623-0.118c6.496-1.529 13.954-2.404 21.616-2.404 14.938 0 29.099 3.33 41.78 9.289l-0.601-0.254c-0.528-4.379-0.85-8.87-0.956-13.363-0.090-3.82-0.032-7.757 0.173-11.709-6.555-0.198-12.619-2.133-17.797-5.357l0.152 0.088-11.604-7.147c-0.109-0.068-0.218-0.138-0.324-0.211-6.304-4.32-13.451-9.218-13.625-20.201l-0.374-23.596c0.161-7.739 3.45-14.678 8.65-19.631l0.011-0.011c6.801-6.761 16.096-11.020 26.386-11.272l0.048-0.001h26.464c0.019 0 0.042 0 0.064 0 23.082 0 42.272 16.661 46.201 38.613l0.042 0.284 19.471 111.095c0.464 2.502 0.728 5.38 0.728 8.321 0 11.785-4.256 22.576-11.315 30.92l0.058-0.070z"></path>
<path fill="#000" d="M266.153 570.461c0 5.075-4.114 9.19-9.19 9.19s-9.19-4.115-9.19-9.19c0-5.075 4.114-9.19 9.19-9.19s9.19 4.115 9.19 9.19z"></path>
<path fill="#000" d="M338.965 573.212c0 5.075-4.115 9.19-9.19 9.19s-9.19-4.115-9.19-9.19c0-5.075 4.115-9.19 9.19-9.19s9.19 4.115 9.19 9.19z"></path>
<path fill="#000" d="M301.225 554.832c0 5.075-4.114 9.19-9.19 9.19s-9.19-4.115-9.19-9.19c0-5.075 4.114-9.19 9.19-9.19s9.19 4.115 9.19 9.19z"></path>
<path fill="#000" d="M599.417 445.843h-21.686c-4.97 0-9 4.030-9 9s4.030 9 9 9v0h21.686c0 0 0.001 0 0.001 0 2.536 0 4.593 2.057 4.593 4.593 0 0.191-0.012 0.38-0.035 0.565l0.002-0.022-9.317 78.308c-18.88-1.389-31.463 1.375-61.525 10.464-13.015 3.935-26.955 3.106-38.441 0.973l-13.87-94.882h57.062c4.97 0 9-4.030 9-9s-4.030-9-9-9v0h-59.694l-3.946-26.994c-3.349-21.571-21.738-37.903-43.961-38.012h-34.816c-4.97 0-9 4.030-9 9s4.030 9 9 9v0h34.804c13.229 0.065 24.17 9.782 26.144 22.467l0.019 0.149 3.565 24.39h-21.375c-12.478 0.001-22.592 10.116-22.592 22.594 0 0.868 0.049 1.726 0.145 2.57l-0.010-0.103 14.315 130.357h-28.807c0-0.003 0-0.006 0-0.009 0-0.964-0.151-1.892-0.433-2.762l0.018 0.064c-0.993-3.161-25.142-77.565-95.66-89.958-0.889-0.156-1.743-0.273-2.615-0.409 14.483-11.449 25.724-26.387 32.528-43.565l0.246-0.705c4.591-11.768 1.909-19.617-1.15-24.129-5.631-8.306-17.218-12.583-34.438-12.71-3.080-0.053-5.558-2.561-5.558-5.649 0-0.647 0.109-1.268 0.309-1.847l-0.012 0.040c15.639-45.343 3.515-62.013-9.407-68.013-18.752-8.71-42.552 3.684-68.817 35.84-0.986 1.209-2.451 1.995-4.102 2.067l-0.012 0.001c-0.091 0.005-0.199 0.009-0.307 0.009-1.509 0-2.874-0.618-3.856-1.614l-0.001-0.001c-20.749-20.969-34.958-19.576-43.23-14.713-17.953 10.56-25.016 44.734-26.873 55.845-3.227 3.331-6.226 6.931-8.943 10.745l-0.192 0.284c-0.625 0.885-1.642 1.457-2.793 1.461h-0.001c-0.037 0.001-0.081 0.002-0.125 0.002-1.203 0-2.267-0.592-2.918-1.499l-0.007-0.010c-8.939-11.75-19.864-21.475-32.354-28.823l-0.52-0.283c-13.44-7.59-26.099-10.020-35.628-6.838-14.465 4.822-17.29 22.555-8.395 52.708 0.097 0.312 0.154 0.671 0.154 1.043 0 1.803-1.319 3.298-3.045 3.571l-0.020 0.003c-19.237 3.045-30.593 16.88-31.159 37.957-0.544 20.249 17.118 40.425 52.497 59.969 1.089 0.579 1.818 1.706 1.818 3.004 0 0.011 0 0.022 0 0.033v-0.001c0 0.017 0.001 0.035 0.001 0.054 0 1.378-0.759 2.578-1.882 3.205l-0.019 0.010c-8.969 5.168-15.655 13.449-18.641 23.335l-0.074 0.285c-4.008 12.738 4.831 20.781 13.084 25.32v45.069c0 4.97 4.030 9 9 9v0c30.11 0.002 55.519 20.123 63.52 47.653l0.116 0.467c0.476 1.711 0.929 3.493 1.345 5.293 3.593 15.34 17.156 26.59 33.347 26.59 0.063 0 0.127 0 0.19-0.001h210c0.053 0 0.116 0.001 0.179 0.001 16.192 0 29.757-11.25 33.305-26.361l0.046-0.232c0.409-1.771 0.861-3.552 1.345-5.292 4.506-15.732 14.293-28.717 27.278-37.222l0.25-0.154 5.194 47.298c1.24 11.096 10.568 19.644 21.893 19.644 0.010 0 0.019 0 0.029 0h103.345c11.259-0.004 20.546-8.442 21.886-19.34l0.010-0.107 30.432-255.778c0.101-0.802 0.158-1.729 0.158-2.67 0-12.478-10.115-22.593-22.593-22.593 0 0-0.001 0-0.001 0v0zM102.228 507.341c0.452 0.269 43.403 26.469 69.557 93.919h-98.996c-0.423-0.283-0.909-0.546-1.419-0.764l-0.059-0.022c-7.286-3.022-8.17-5.351-8.173-5.36 0.009-0.166 0.042-0.321 0.097-0.465l-0.004 0.010c1.672-5.779 5.439-10.49 10.405-13.358l0.109-0.058c6.578-3.83 10.93-10.848 10.93-18.883 0-0.051 0-0.101-0.001-0.152v0.007c-0.016-8.006-4.455-14.971-11.002-18.584l-0.109-0.055c-27.794-15.353-43.541-31.292-43.207-43.73 0.338-12.595 5.266-18.967 15.979-20.662 10.404-1.686 18.252-10.603 18.252-21.355 0-2.187-0.325-4.298-0.928-6.289l0.040 0.153c-6.293-21.333-4.34-29.415-3.177-30.539 9.555-3.178 32.815 9.115 48.469 29.749 4.022 5.251 10.288 8.609 17.34 8.629h0.003c0.101 0 0.202-0.001 0.302-0.002 7.073-0.068 13.314-3.575 17.137-8.926l0.044-0.065c2.722-3.896 5.644-7.308 8.866-10.411l0.022-0.021c0.132-0.116 0.258-0.238 0.382-0.362 4.379-3.986 7.346-4.942 8.743-5.153 0.238-0.037 0.512-0.058 0.791-0.058 1.382 0 2.642 0.524 3.592 1.385l-0.005-0.004c7.204 5.488 11.968 21.785 13.068 44.708 0.347 7.471 4.504 13.899 10.561 17.418l0.101 0.055c0.623 0.365 1.379 0.745 2.158 1.082l0.142 0.054 0.013 0.007 0.004 0.001c0.151 0.065 0.305 0.121 0.458 0.182q0.408 0.163 0.821 0.284c2.17 0.799 4.675 1.261 7.289 1.261 3.669 0 7.126-0.911 10.156-2.518l-0.118 0.057c2.367-1.229 6.784-3.123 9.753-1.98 2.903 1.113 4.96 5.2 6.175 8.431 5.763 15.34-7.992 51.99-35.926 95.919-28.016-77.69-77.308-107.745-79.436-109.010-1.324-0.81-2.927-1.289-4.642-1.289-4.97 0-9 4.030-9 9 0 3.292 1.767 6.17 4.404 7.74l0.041 0.023zM211.826 601.26c14.65-24.079 23.548-43.23 28.571-58.445 0.447-0.437 0.847-0.918 1.195-1.438l0.020-0.032c0.442-0.63 7.807-10.778 26.156-14.936 0.241-0.045 0.48-0.101 0.72-0.165 8.755-1.877 19.941-2.39 33.999 0.079 52.725 9.266 75.849 62.333 80.637 74.937zM442.887 549.315l-8.827-80.375c-0.017-0.151-0.028-0.325-0.028-0.502 0-2.536 2.057-4.593 4.593-4.593 0 0 0 0 0 0h24.007l13.129 89.811c-1.038-0.366-1.943-0.702-2.73-1.003-6.094-2.958-13.255-4.688-20.82-4.688-0.145 0-0.289 0.001-0.434 0.002h0.022c-3.203 0.079-6.261 0.566-9.166 1.411l0.253-0.063zM573.546 724.76c-0.248 2.021-1.954 3.571-4.022 3.572h-103.346c-0.001 0-0.003 0-0.004 0-2.081 0-3.795-1.571-4.022-3.59l-0.001-0.019-5.855-53.32c5.648-1.75 12.142-2.757 18.87-2.757 0.002 0 0.004 0 0.006 0h0.257c4.97 0 9-4.030 9-9v0-49.386c0-4.97-4.030-9-9-9v0h-26.837l-3.676-33.48c2.143-1.116 4.674-1.785 7.358-1.819h0.011c0.068-0.001 0.149-0.001 0.23-0.001 3.584 0 7.011 0.671 10.163 1.893l-0.192-0.065c0.494 0.221 1.803 0.793 3.782 1.563 6.176 2.869 13.707 7.92 22.661 16.522 24.19 23.241 50.273 29.533 71.422 29.533 9.451-0.022 18.615-1.205 27.37-3.417l-0.776 0.166z"></path>
</svg>
